<svg width="14" height="18" viewBox="0 0 14 18" fill="none" xmlns="http://www.w3.org/2000/svg">
<path d="M7.7475 0.858398C4.34174 0.858398 1.30647 3.67191 0.861954 7.2254L0.417767 10.742C-0.0264192 14.2959 2.34258 17.1462 5.74834 17.1462C9.1541 17.1462 12.1894 14.2959 12.6339 10.742L13.0781 7.2254C13.5223 3.67191 11.1529 0.858398 7.7475 0.858398ZM9.96844 7.2254L9.52425 10.7792C9.30216 12.4819 7.82153 13.8889 6.15567 13.8889C4.48981 13.8889 3.30531 12.4823 3.5274 10.7792L3.97159 7.2254C4.19368 5.48551 5.6743 4.11577 7.34017 4.11577C9.00603 4.11577 10.1905 5.48551 9.96844 7.2254Z" fill="black"/>
</svg>
