<svg width="111" height="18" viewBox="0 0 111 18" fill="none" xmlns="http://www.w3.org/2000/svg">
<g clip-path="url(#clip0_3994_77484)">
<path d="M52.3317 1.00635H46.779C45.0763 1.00635 43.6694 2.26488 43.4473 3.96792L41.8555 16.9984H45.1132L45.7054 12.2229H47.98L50.5178 16.9984H54.2937L51.1956 11.1354L54.6638 6.92949C56.9219 4.19001 55.6634 1.00668 52.3317 1.00668V1.00635ZM51.5173 5.5966L49.074 8.63221C48.9259 8.81745 48.6667 8.92833 48.4446 8.92833H46.1124L46.6678 4.26405H50.9988C51.7023 4.26405 51.9984 4.9675 51.517 5.5966H51.5173Z" fill="black"/>
<path d="M80.8522 1.00635H75.2995C73.5968 1.00635 72.1899 2.26488 71.9678 3.96792L70.376 16.9984H73.6337L74.2259 12.2229H76.5005L79.0383 16.9984H82.8142L79.7161 11.1354L83.1843 6.92949C85.4425 4.19001 84.1839 1.00668 80.8522 1.00668V1.00635ZM80.0379 5.5966L77.5945 8.63221C77.4464 8.81745 77.1872 8.92833 76.9651 8.92833H74.6329L75.1883 4.26405H79.5193C80.2228 4.26405 80.5189 4.9675 80.0375 5.5966H80.0379Z" fill="#FF2410"/>
<path d="M24.3092 1.00635H18.7566C17.0539 1.00635 15.6469 2.26488 15.4248 3.96792L13.833 16.9984H17.0907L17.683 12.2229H21.0147C21.829 12.2229 22.6434 11.8527 23.1988 11.1493L26.6786 6.92916C29.0847 4.00477 27.641 1.00635 24.3092 1.00635ZM23.5317 5.5966L21.0884 8.63221C20.9403 8.81745 20.681 8.92833 20.459 8.92833H18.0896L18.645 4.26405H23.0132C23.7167 4.26405 24.0128 4.9675 23.5314 5.5966H23.5317Z" fill="black"/>
<path d="M35.7475 0.858398C32.3417 0.858398 29.3065 3.67191 28.862 7.2254L28.4178 10.742C27.9736 14.2959 30.3426 17.1462 33.7483 17.1462C37.1541 17.1462 40.1894 14.2959 40.6339 10.742L41.0781 7.2254C41.5223 3.67191 39.1529 0.858398 35.7475 0.858398ZM37.9684 7.2254L37.5242 10.7792C37.3022 12.4819 35.8215 13.8889 34.1557 13.8889C32.4898 13.8889 31.3053 12.4823 31.5274 10.7792L31.9716 7.2254C32.1937 5.48551 33.6743 4.11577 35.3402 4.11577C37.006 4.11577 38.1905 5.48551 37.9684 7.2254Z" fill="black"/>
<path d="M1.80626 5.8187C1.47296 8.59503 3.25003 10.631 6.02636 10.631H7.80311C8.69148 10.631 9.28373 11.2973 9.17285 12.1857C9.06164 13.0741 8.32133 13.7404 7.43295 13.7404H0.843859L0.436523 16.9984H7.09998C9.83946 16.9984 12.0976 14.9624 12.4305 12.2229C12.7639 9.44655 10.9868 7.37335 8.21045 7.37335H6.4337C5.54533 7.37335 4.95308 6.70707 5.06396 5.8187C5.17517 4.93032 5.91548 4.26405 6.80386 4.26405H13.393L13.8003 1.00635H7.21086C4.43453 1.00635 2.13924 3.04237 1.80626 5.8187Z" fill="black"/>
<path d="M101.899 7.37368C102.121 5.63378 103.602 4.26404 105.268 4.26404H109.975L110.382 1.00635H105.675C102.269 1.00635 99.2342 3.81986 98.7897 7.37335L98.3823 10.5939C97.9381 14.1477 100.27 16.9609 103.676 16.998H108.408L108.815 13.7404H104.083C102.418 13.7035 101.27 12.3338 101.492 10.6307L101.899 7.37302V7.37368Z" fill="#FF2410"/>
<path d="M86.3143 3.96825L85.0927 14.0371C84.8706 15.7399 85.981 16.9987 87.6841 16.9987H95.5689L95.9762 13.741H88.4244L88.7945 10.6314H95.1247L95.532 7.37368H89.2019L89.572 4.26405H97.1239L97.5312 1.00635H89.6464C87.9437 1.00635 86.5368 2.26488 86.3147 3.96792L86.3143 3.96825Z" fill="#FF2410"/>
<path d="M57.6621 4.26405H62.1783L60.6237 16.9984H63.8814L65.436 4.26405H69.9523L70.3596 1.00635H58.0694L57.6621 4.26405Z" fill="black"/>
</g>
<defs>
<clipPath id="clip0_3994_77484">
<rect width="109.946" height="16.2882" fill="white" transform="translate(0.436523 0.858398)"/>
</clipPath>
</defs>
</svg>
