<svg width="14" height="16" viewBox="0 0 14 16" fill="none" xmlns="http://www.w3.org/2000/svg">
<path d="M1.80626 4.8187C1.47296 7.59503 3.25003 9.63105 6.02636 9.63105H7.80311C8.69148 9.63105 9.28373 10.2973 9.17285 11.1857C9.06164 12.0741 8.32133 12.7404 7.43295 12.7404H0.843859L0.436523 15.9984H7.09998C9.83946 15.9984 12.0976 13.9624 12.4305 11.2229C12.7639 8.44655 10.9868 6.37335 8.21045 6.37335H6.4337C5.54533 6.37335 4.95308 5.70707 5.06396 4.8187C5.17517 3.93032 5.91548 3.26405 6.80386 3.26405H13.393L13.8003 0.00634766H7.21086C4.43453 0.00634766 2.13924 2.04237 1.80626 4.8187Z" fill="black"/>
</svg>
