<svg width="162" height="205" viewBox="0 0 162 205" fill="none" xmlns="http://www.w3.org/2000/svg">
<path d="M93.435 0C50.5698 0 12.3675 35.4111 6.77283 80.1357L1.18226 124.396C-4.40831 169.125 25.4081 205 68.2732 205C111.138 205 149.341 169.125 154.935 124.396L160.526 80.1357C166.117 35.4069 136.3 0 93.435 0ZM121.388 80.1357L115.797 124.864C113.002 146.295 94.3667 164.002 73.4 164.002C52.4333 164.002 37.5251 146.299 40.3204 124.864L45.911 80.1357C48.7063 58.2372 67.3415 40.9975 88.3082 40.9975C109.275 40.9975 124.183 58.2372 121.388 80.1357Z" fill="white"/>
</svg>
