<svg width="74" height="203" viewBox="0 0 74 203" fill="none" xmlns="http://www.w3.org/2000/svg">
<path d="M-77.7603 61.4302C-81.9553 96.3733 -59.5889 121.999 -24.6458 121.999H-2.2835C8.89764 121.999 16.3517 130.385 14.9562 141.566C13.5564 152.747 4.23883 161.133 -6.94231 161.133H-89.8732L-95 202.135H-11.1332C23.3462 202.135 51.7669 176.509 55.9578 142.03C60.1528 107.087 37.7864 80.9931 2.84325 80.9931H-19.519C-30.7002 80.9931 -38.1543 72.6072 -36.7587 61.4261C-35.359 50.2449 -26.0414 41.8591 -14.8602 41.8591H68.0707L73.1974 0.857422H-9.73759C-44.6807 0.857422 -73.5695 26.4829 -77.7603 61.4261V61.4302Z" fill="white"/>
</svg>
