<svg width="19" height="18" viewBox="0 0 19 18" fill="none" xmlns="http://www.w3.org/2000/svg">
<path d="M12.5628 5.81956C14.3202 7.57692 14.3202 10.4262 12.5628 12.1835M6.19888 12.1835C4.44152 10.4261 4.44152 7.5769 6.19888 5.81954M4.07756 14.3048C1.14863 11.3759 1.14863 6.62717 4.07756 3.69824M14.6842 3.69828C17.6131 6.62721 17.6131 11.3759 14.6842 14.3049M10.8809 9.00154C10.8809 9.82997 10.2093 10.5015 9.38086 10.5015C8.55243 10.5015 7.88086 9.82997 7.88086 9.00154C7.88086 8.17312 8.55243 7.50154 9.38086 7.50154C10.2093 7.50154 10.8809 8.17312 10.8809 9.00154Z" stroke="#9395B8" stroke-width="1.38462" stroke-linecap="round" stroke-linejoin="round"/>
</svg>
