<svg width="20" height="20" viewBox="0 0 20 20" fill="none" xmlns="http://www.w3.org/2000/svg">
<path fill-rule="evenodd" clip-rule="evenodd" d="M7.67154 2.33613C7.6815 2.34277 7.6915 2.34943 7.70153 2.35612L16.4922 8.21655C16.7465 8.38608 16.9823 8.54326 17.1635 8.68933C17.3525 8.84177 17.5753 9.05317 17.7036 9.36242C17.8731 9.77118 17.8731 10.2306 17.7036 10.6393C17.5753 10.9486 17.3525 11.16 17.1635 11.3124C16.9823 11.4585 16.7465 11.6157 16.4922 11.7852L7.67157 17.6656C7.36067 17.8729 7.0811 18.0593 6.84388 18.1879C6.60649 18.3165 6.28065 18.4635 5.90034 18.4408C5.41388 18.4118 4.9645 18.1713 4.67049 17.7826C4.44064 17.4788 4.38222 17.1261 4.35758 16.8572C4.33296 16.5885 4.33298 16.2526 4.33301 15.8789L4.33301 4.1589C4.33301 4.14685 4.33301 4.13483 4.33301 4.12286C4.33298 3.7492 4.33296 3.4132 4.35758 3.14451C4.38222 2.87563 4.44064 2.52297 4.67049 2.21913C4.9645 1.83048 5.41388 1.58998 5.90034 1.56093C6.28065 1.53822 6.6065 1.68523 6.84388 1.81388C7.0811 1.94244 7.36065 2.12883 7.67154 2.33613Z" fill="white"/>
</svg>
