<svg width="17" height="12" viewBox="0 0 17 12" fill="none" xmlns="http://www.w3.org/2000/svg">
<path d="M0.134233 11V0.818182H3.85298C4.63849 0.818182 5.29474 0.954072 5.82173 1.22585C6.34872 1.49763 6.74479 1.87547 7.00994 2.35938C7.27509 2.84328 7.40767 3.40341 7.40767 4.03977C7.40767 4.67945 7.27344 5.23627 7.00497 5.71023C6.73982 6.18419 6.34209 6.55208 5.81179 6.81392C5.28149 7.07576 4.62358 7.20668 3.83807 7.20668H1.10369V5.7848H3.64915C4.12642 5.7848 4.51586 5.71686 4.81747 5.58097C5.1224 5.44508 5.34612 5.24787 5.48864 4.98935C5.63116 4.72751 5.70241 4.41098 5.70241 4.03977C5.70241 3.66525 5.6295 3.34375 5.48366 3.07528C5.34115 2.80682 5.11742 2.60133 4.8125 2.45881C4.51089 2.31297 4.11813 2.24006 3.63423 2.24006H1.8196V11H0.134233ZM5.27486 6.39631L7.79048 11H5.89134L3.42045 6.39631H5.27486ZM15.1866 0.818182H16.872V7.49503C16.872 8.21425 16.7013 8.85062 16.3599 9.40412C16.0218 9.95431 15.5462 10.3852 14.9331 10.6967C14.3199 11.005 13.604 11.1591 12.7853 11.1591C11.9634 11.1591 11.2458 11.005 10.6326 10.6967C10.0195 10.3852 9.54386 9.95431 9.20579 9.40412C8.86772 8.85062 8.69869 8.21425 8.69869 7.49503V0.818182H10.3841V7.35582C10.3841 7.79664 10.4818 8.19105 10.6774 8.53906C10.8729 8.88376 11.1497 9.15388 11.5076 9.34943C11.8656 9.54498 12.2915 9.64276 12.7853 9.64276C13.2792 9.64276 13.7051 9.54498 14.063 9.34943C14.4243 9.15388 14.7011 8.88376 14.8933 8.53906C15.0888 8.19105 15.1866 7.79664 15.1866 7.35582V0.818182Z" fill="#06082C"/>
</svg>
